PathFileType	4	(X/Y/Z)	Patient4_TMGait_0pt7_01_left_01.trc.trc
DataRate	CameraRate	NumFrames	NumMarkers	Units	OrigDataRate	OrigDataStartFrame	OrigNumFrames
86.956521739130	86.956521739130	4	33	mm	86.956521739130	18	       141
Frame#	Time	Sacral			L.Shoulder			Chest			R.Shoulder			Neck			R.ASIS			L.ASIS			R.Thigh.Superior			R.Thigh.Lateral			R.Thigh.Inferior			R.Patella			L.Thigh.Superior			L.Thigh.Lateral			L.Thigh.Inferior			L.Patella			L.Shank.Superior			L.Shank.Lateral			L.Shank.Inferior			R.Shank.Superior			R.Shank.Lateral			R.Shank.Inferior			R.Heel			R.Midfoot.Superior			R.Midfoot.Lateral			R.Toe			L.Heel			L.Midfoot.Lateral			L.Midfoot.Superior			L.Toe			L.Elbow			L.Wrist			R.Elbow			R.Wrist			
		X1	Y1	Z1	X2	Y2	Z2	X3	Y3	Z3	X4	Y4	Z4	X5	Y5	Z5	X6	Y6	Z6	X7	Y7	Z7	X8	Y8	Z8	X9	Y9	Z9	X10	Y10	Z10	X11	Y11	Z11	X12	Y12	Z12	X13	Y13	Z13	X14	Y14	Z14	X15	Y15	Z15	X16	Y16	Z16	X17	Y17	Z17	X18	Y18	Z18	X19	Y19	Z19	X20	Y20	Z20	X21	Y21	Z21	X22	Y22	Z22	X23	Y23	Z23	X24	Y24	Z24	X25	Y25	Z25	X26	Y26	Z26	X27	Y27	Z27	X28	Y28	Z28	X29	Y29	Z29	X30	Y30	Z30	X31	Y31	Z31	X32	Y32	Z32	X33	Y33	Z33	

18	1.325500000000	763.387728193989	1005.763478112540	567.183820798461	946.463056318057	1424.506140712581	378.458893946873	1053.947576633376	1351.654999257514	536.382451035960	981.052194643694	1433.733946520882	711.906100169468	955.642555669902	1488.362282032878	535.364885013481	988.586401863391	939.840784592720	684.707073711573	974.758396873870	950.354488210144	408.605402770367	990.808030155521	728.967694214694	659.019215792527	884.434416139836	633.637447685946	714.014987488568	949.684151695921	569.331466051167	637.228374868842	932.741875804869	485.157674266898	639.869028347005	1050.067534441427	777.978563510842	440.862055374373	1015.397793861228	651.313465287750	351.785238922105	1119.237682049904	596.385683079925	416.879200033326	1152.025212138678	533.002852700379	410.797366477250	1137.689395611706	460.095718866158	399.868686399830	1078.126469246431	328.634241615770	344.274039418357	1167.349690437943	231.808613819335	399.971492005797	898.218337944591	400.783523203720	643.293333587861	816.742777031380	301.410007741520	699.796707386167	854.597379833057	205.226420160089	635.051423652934	713.221948831221	43.780914757884	592.711924891558	883.182718513410	97.087100037491	638.193251007268	792.198441052021	36.938205284247	671.413273527739	1000.981588876745	42.307503730169	671.996174507451	1090.722676412089	48.103895756167	433.366513059629	1168.519059792935	55.156940875870	357.066187371758	1234.315915488231	136.527447388683	379.942916619905	1370.200018211979	113.842128022546	361.260982735819	818.895191450677	1092.272961385845	286.545425929637	780.734118017160	839.607788918270	280.094167594262	1091.202528155190	1118.448406356996	839.420670968431	1315.775323008113	1206.359799437571	772.658931777950	
19	1.337000000000	763.855345264006	1005.027326282889	565.768574315599	946.195931673178	1423.732486044394	376.721025192734	1053.886158820301	1350.973553088688	534.531361918028	981.038046921816	1433.251639306297	709.943352215314	955.390093088889	1487.571998666280	533.595940456935	988.868054725266	938.996671767939	683.337147318207	975.167182792960	949.171356783629	407.005767171060	989.530858342699	727.766599546584	657.815156429697	882.247793579946	633.254840134169	713.013435784084	946.716476927420	568.322933080802	636.229892060982	929.020902048586	484.067423826566	638.928932342740	1049.808676734627	776.107808053433	439.676598814686	1013.311805284075	648.785356004493	352.036803150307	1117.407423188986	593.877324495423	416.278756144688	1149.491255261208	530.600686014818	410.821740754880	1135.457040786858	457.646456642282	400.387810176731	1075.778829299982	325.451274728314	347.127642448534	1166.260840183513	229.621643268686	402.450298736703	893.590704182410	400.043871056337	642.551013444628	811.283564446172	301.575376092321	699.537592934350	847.841269370529	204.911202584395	634.779082093576	705.173952951533	44.022949465770	592.799003280510	875.243471085187	97.158133433497	638.353690294993	784.139787752818	36.975066925666	671.446067485935	992.921178436633	42.005500547532	672.038378203261	1090.726231252584	46.635961231502	438.681819504267	1167.440340737709	52.787122861415	361.317791139432	1233.801284181524	133.867857761998	382.623831129710	1369.203365470955	110.423758890107	362.402380921181	814.251901967808	1093.829593907139	284.599587784950	772.320251074497	841.592621840168	280.232982956183	1093.490529805135	1119.139947884785	836.671637197175	1310.664621768387	1220.471156228285	767.203167642292	
20	1.348500000000	764.557373136495	1004.174068633500	564.125208818101	945.902746226808	1422.971282272099	374.835510465452	1053.806227058524	1350.400729758249	532.568004283127	980.841691715175	1432.765965388575	707.853001960628	954.992541332451	1486.772338353670	531.690075371304	989.345432258153	938.101852102983	681.795127766716	975.877402949876	947.953707039954	405.277873898437	988.538095546993	726.525042028606	656.556207631854	880.305497977219	632.834089473855	711.898259630946	944.090776263458	567.249303934542	635.217249750885	925.634760581321	482.869020373998	637.953709649101	1049.955423376933	774.187705450694	438.360818403126	1011.442464468979	646.123083320556	352.538373301478	1115.839224482498	591.298030053472	415.875302394914	1146.971641784309	527.778399198038	411.123332415286	1132.895492392558	454.645067088782	401.157813991046	1072.291220633946	322.110445166431	350.291660129268	1163.421103850467	226.754786154600	405.234285563894	889.232271423749	399.227969415340	641.766471791475	805.985451828487	301.744697161815	699.198426570867	841.192617871728	204.569349063684	634.490892447228	697.131123356010	44.295797977326	592.901059343647	867.322350932619	97.242771994255	638.515542881271	776.097617838912	37.019566774331	671.485502564470	984.876155400289	41.690154355657	672.098447230720	1087.825555344372	45.095928549324	444.238212038272	1163.294088174911	50.163098164128	365.636064546420	1230.807663913343	130.317712335372	385.551779515694	1365.502997119201	105.228577678068	363.321188060943	810.305329607220	1095.160095445767	282.692409964389	764.815862065229	843.348523124687	280.372025838868	1095.352123915850	1119.665779459462	833.927170555384	1304.842880170665	1233.007506663345	761.896368503497	
21	1.360000000000	765.470027689151	1003.212120809335	562.242360932276	945.608411241257	1422.198649853458	372.781706991788	1053.720806403107	1349.919929641361	530.487029796402	980.471303795455	1432.269853543910	705.630165781570	954.468894804347	1485.961131416287	529.623025224220	989.990202026467	937.153163392915	680.106942516996	976.889143146472	946.705684246569	403.449226223839	987.814922755263	725.241228173919	655.272551723574	878.601219897257	632.358955277840	710.669120234884	941.823572646371	566.104064241527	634.191104547797	922.613637208381	481.537670086069	636.938072937692	1050.483731399618	772.198278046902	436.951583701826	1009.783299216095	643.373067578699	353.239380758845	1114.495689169082	588.651883202157	415.687101439396	1144.423341705930	524.584649234829	411.761145521642	1130.057816303022	451.192135192882	402.185783481468	1067.956213472772	318.663930726080	353.553928868060	1159.136098397684	223.319108620782	408.229135935554	885.163547376058	398.317730879944	640.929197783002	800.859173084515	301.907151391134	698.763611748263	834.656392303020	204.193671338766	634.175035393285	689.087623692615	44.608240671845	593.020791774515	859.414335933325	97.333387269965	638.663673250248	768.069581344429	37.077272659065	671.535700135609	976.849032368675	41.370960215816	672.177556444800	1082.434062386489	43.490307892218	449.678059116979	1156.634609505442	47.402786407208	369.803269645390	1225.765887830329	126.050173275649	388.686289134434	1359.603635740075	98.570076376982	364.221676049446	807.037264309187	1096.191053075642	280.846233754084	758.192626154568	844.820269528214	280.473380675885	1096.728592905249	1120.000807865451	831.239177499065	1298.471426830027	1243.921172854283	756.763150145830	
